<?xml version="1.0" encoding="UTF-8"?>
<svg id="Layer_2" data-name="Layer 2" xmlns="http://www.w3.org/2000/svg" viewBox="0 0 350 429.96">
  <defs>
    <style>
      .cls-1 {
        fill: #989898;
      }
    </style>
  </defs>
  <g id="Layer_1-2" data-name="Layer 1">
    <g>
      <path class="cls-1" d="M.11,234.06c.39-31.35,6.8-61.01,25.5-86.95,16.79-23.29,39.11-38.13,67.89-41.95,17.45-2.31,34.2,1.49,50.49,7.67,6.54,2.48,13.15,4.8,19.64,7.4,10.18,4.08,20.05,3.54,30.13-.67,13.6-5.68,27.17-11.67,41.84-14.13,38.13-6.41,71.16,2.91,97.53,32.19,6.93,7.7,6.79,7.63-1.13,13.57-23.3,17.49-36.96,40.45-38.61,69.85-2.36,42.18,16.38,72.41,53.04,92.19,3.01,1.62,4.46,2.87,2.97,6.56-11.64,28.74-25.21,56.38-45.05,80.52-4.75,5.78-10.08,11.01-15.8,15.83-16.06,13.52-34.05,16.65-53.82,9.83-7.47-2.58-14.96-5.15-22.35-7.95-18.09-6.85-36.25-6.97-54.51-.85-8.36,2.8-16.89,5.25-24.99,8.68-19.92,8.44-37.12,3.26-53.08-9.54-17.37-13.94-30.4-31.46-41.48-50.53C18.69,331.96,6.1,295.7,1.32,256.86c-.93-7.52-1.6-15.14-1.21-22.8Z"/>
      <path class="cls-1" d="M261.62,9.62c-.36,38.06-27.36,75.6-62.34,86.61-6.56,2.06-13.32,3.02-20.21,3.01-2.8,0-4.36-.74-4.61-4.09-1.31-18.19,4.08-34.55,13.63-49.65C204.08,20.23,226.56,4.62,256.49,.18c4.23-.63,5.59,.34,5.16,4.42-.18,1.65-.03,3.34-.03,5.02Z"/>
    </g>
  </g>
</svg>