<?xml version="1.0" encoding="UTF-8"?>
<svg id="Layer_2" data-name="Layer 2" xmlns="http://www.w3.org/2000/svg" viewBox="0 0 480 480">
  <defs>
    <style>
      .cls-1 {
        fill: #c00;
      }
    </style>
  </defs>
  <g id="Layer_1-2" data-name="Layer 1">
    <g>
      <path class="cls-1" d="M228,0c8,0,16,0,24,0,1.2,.23,2.4,.59,3.62,.66,15.52,.83,30.77,3.39,45.77,7.35,94,24.84,164.04,104.5,176.47,200.72,.83,6.41,1.44,12.84,2.15,19.27v24c-.22,.95-.58,1.89-.63,2.85-2.08,35.99-11.55,69.96-29.5,101.16-39.9,69.37-99.64,110.09-178.93,121.78-7.02,1.03-14.12,1.49-21.19,2.21h-19.5c-4.7-.47-9.41-.95-14.11-1.41-46.17-4.57-87.7-21.04-123.97-49.85C40.96,388.08,10.89,335.08,2.09,270.18c-.89-6.53-1.41-13.12-2.09-19.68,0-7,0-14,0-21,.22-1.21,.58-2.42,.64-3.64,1.05-20.44,4.97-40.31,11.15-59.81C39.36,79.01,117.84,13.53,208.36,2.19c6.54-.82,13.09-1.46,19.64-2.19Zm12.08,79.94c-88.32-.1-160.04,71.5-160.1,159.86-.06,88.46,71.32,160.03,159.75,160.17,88.45,.14,160.12-71.24,160.27-159.63,.15-88.61-71.31-160.29-159.92-160.39Z"/>
      <path class="cls-1" d="M240.31,160.06c44.34,.44,80.1,36.42,79.64,80.12-.47,44.57-36.56,80.34-80.43,79.72-44.44-.63-79.98-36.57-79.44-80.32,.55-44.41,36.42-79.96,80.23-79.52Z"/>
    </g>
  </g>
</svg>